<svg height="512pt" viewBox="0 0 512.00023 512" width="512pt" xmlns="http://www.w3.org/2000/svg"><path d="m270.964844 419.945312v76.988282c0 8.398437-6.597656 15-15 15-8.398438 0-14.996094-6.601563-14.996094-15v-76.988282c0-8.402343 6.597656-15 14.996094-15 8.402344 0 15 6.597657 15 15zm0 0" fill="#fdbf00"/><path d="m270.964844 419.945312v76.988282c0 8.398437-6.597656 15-15 15v-106.988282c8.402344 0 15 6.597657 15 15zm0 0" fill="#ff9100"/><path d="m225.132812 401.957031c-.5 0-.996093-.027343-1.511718-.070312l-120.128906-12.011719c-7.660157-.761719-13.503907-7.222656-13.503907-14.925781v-59.992188c0-8.289062 6.707031-14.996093 14.996094-14.996093 8.292969 0 15 6.707031 15 14.996093v46.417969l106.625 10.660156c8.246094.820313 15.253906 8.171875 14.433594 16.417969-.777344 7.734375-8.296875 13.503906-15.910157 13.503906zm0 0" fill="#fdbf00"/><path d="m406.945312 419.945312c-.496093 0-.996093-.03125-1.492187-.074218l-120.132813-12.011719c-8.242187-.816406-15.25-8.171875-14.429687-16.417969.835937-8.230468 9.113281-14.101562 17.417969-13.429687l103.640625 10.371093v-43.429687c0-8.289063 6.707031-14.996094 14.996093-14.996094 8.289063 0 15 6.707031 15 14.996094v59.992187c0 4.234376-1.789062 8.277344-4.9375 11.117188-2.769531 2.503906-6.355468 3.882812-10.0625 3.882812zm0 0" fill="#ff9100"/><path d="m209.972656 74.988281v119.984375c0 8.398438-6.597656 15-15 15h-179.976562c-8.398438 0-14.996094-6.601562-14.996094-15v-119.984375zm0 0" fill="#575f64"/><path d="m149.980469 44.992188v29.996093c0 8.398438-6.597657 15-15 15-8.398438 0-14.996094-6.601562-14.996094-15v-29.996093c0-8.398438-6.597656-14.996094-15-14.996094-8.398437 0-14.996094 6.597656-14.996094 14.996094v29.996093c0 8.398438-6.597656 15-15 15-8.398437 0-14.996093-6.601562-14.996093-15v-29.996093c0-24.894532 20.097656-44.992188 44.992187-44.992188 24.898437 0 44.996094 20.097656 44.996094 44.992188zm0 0" fill="#575f64"/><path d="m436.941406 359.953125h-59.992187c-41.347657 0-74.988281-33.644531-74.988281-74.992187 0-8.289063 6.707031-14.996094 14.996093-14.996094h179.976563c8.289062 0 15 6.707031 15 14.996094 0 41.347656-33.644532 74.992187-74.992188 74.992187zm0 0" fill="#fdbf00"/><path d="m134.980469 329.957031h-59.992188c-41.347656 0-74.988281-33.644531-74.988281-74.992187 0-8.289063 6.707031-14.996094 14.996094-14.996094h179.976562c8.292969 0 15 6.707031 15 14.996094 0 41.347656-33.644531 74.992187-74.992187 74.992187zm0 0" fill="#ffda2d"/><path d="m361.953125 496.933594c0 8.398437-6.597656 15-15 15h-181.976563c-8.398437 0-14.996093-6.601563-14.996093-15 0-8.398438 6.597656-14.996094 14.996093-14.996094h181.976563c8.402344 0 15 6.597656 15 14.996094zm0 0" fill="#7c8388"/><path d="m255.964844 344.953125c-24.898438 0-45.992188 20.097656-45.992188 44.996094 0 24.894531 21.09375 44.992187 45.992188 44.992187 24.898437 0 45.996094-20.097656 45.996094-44.992187 0-24.898438-21.097657-44.996094-45.996094-44.996094zm0 0" fill="#ffda2d"/><path d="m255.964844 434.941406v-89.988281c24.898437 0 45.996094 20.097656 45.996094 44.996094 0 24.894531-21.097657 44.992187-45.996094 44.992187zm0 0" fill="#fdbf00"/><path d="m361.953125 496.933594c0 8.398437-6.597656 15-15 15h-90.988281v-29.996094h90.988281c8.402344 0 15 6.597656 15 14.996094zm0 0" fill="#575f64"/><path d="m149.980469 44.992188v29.996093c0 8.398438-6.597657 15-15 15-8.398438 0-14.996094-6.601562-14.996094-15v-29.996093c0-8.398438-6.597656-14.996094-15-14.996094v-29.996094c24.898437 0 44.996094 20.097656 44.996094 44.992188zm0 0" fill="#32393f"/><path d="m209.972656 74.988281v119.984375c0 8.398438-6.597656 15-15 15h-89.988281v-134.984375zm0 0" fill="#32393f"/><path d="m194.972656 59.992188h-179.976562c-8.398438 0-14.996094 6.597656-14.996094 14.996093 0 41.394531 33.59375 74.992188 74.988281 74.992188h59.992188c41.394531 0 74.992187-33.597657 74.992187-74.992188 0-8.398437-6.597656-14.996093-15-14.996093zm0 0" fill="#7c8388"/><path d="m209.972656 74.988281c0 41.394531-33.597656 74.992188-74.992187 74.992188h-29.996094v-89.988281h89.988281c8.402344 0 15 6.597656 15 14.996093zm0 0" fill="#575f64"/><path d="m481.9375 114.886719v110.082031c0 8.402344-6.601562 15-15 15h-44.992188l-15-29.996094-14.996093 29.996094h-44.996094c-8.398437 0-14.996094-6.597656-14.996094-15v-110.082031l74.988281-29.996094zm0 0" fill="#ff9100"/><path d="m421.945312 164.976562v74.992188h-29.996093v-74.992188c0-8.398437 6.597656-14.996093 14.996093-14.996093 8.402344 0 15 6.597656 15 14.996093zm0 0" fill="#575f64"/><path d="m481.9375 114.886719v110.082031c0 8.402344-6.601562 15-15 15h-44.992188l-15-29.996094v-125.082031zm0 0" fill="#ff641a"/><path d="m421.945312 164.976562v74.992188h-15v-89.988281c8.402344 0 15 6.597656 15 14.996093zm0 0" fill="#32393f"/><path d="m509.53125 143.382812c-4.5 6.597657-13.796875 8.695313-20.996094 4.199219l-81.589844-54.59375-81.585937 54.59375c-6.902344 4.5-16.199219 2.699219-21-4.199219-4.5-6.902343-2.699219-16.199218 4.199219-20.996093l89.988281-59.992188c2.402344-1.800781 5.402344-2.402343 8.398437-2.402343 3 0 6 .601562 8.402344 2.402343l89.988282 59.992188c6.894531 4.796875 8.695312 14.09375 4.195312 20.996093zm0 0" fill="#7c8388"/><path d="m509.53125 143.382812c-4.5 6.597657-13.796875 8.695313-20.996094 4.199219l-81.589844-54.59375v-32.996093c3 0 6 .601562 8.402344 2.402343l89.984375 59.992188c6.898438 4.796875 8.699219 14.09375 4.199219 20.996093zm0 0" fill="#575f64"/></svg>